<?xml version="1.0" standalone="no"?>
<!DOCTYPE svg PUBLIC "-//W3C//DTD SVG 20010904//EN"
 "http://www.w3.org/TR/2001/REC-SVG-20010904/DTD/svg10.dtd">
<svg version="1.0" xmlns="http://www.w3.org/2000/svg"
 width="471.000000pt" height="378.000000pt" viewBox="0 0 471.000000 378.000000"
 preserveAspectRatio="xMidYMid meet">

<g transform="translate(0.000000,378.000000) scale(0.100000,-0.100000)"
fill="#000000" stroke="none">
<path d="M1115 3698 c-10 -29 -20 -59 -23 -65 -2 -7 1 -13 6 -13 6 0 14 9 17
20 4 11 15 20 27 20 11 0 22 -8 25 -20 6 -22 23 -28 22 -7 -1 26 -36 111 -46
114 -6 2 -19 -20 -28 -49z m33 -27 c-15 -6 -20 7 -12 31 l8 23 6 -25 c3 -14 2
-27 -2 -29z"/>
<path d="M1350 3685 c0 -37 4 -65 10 -65 6 0 10 16 10 35 0 24 5 35 15 35 10
0 15 -11 15 -35 0 -19 5 -35 10 -35 6 0 10 15 10 34 0 35 -21 63 -40 51 -6 -4
-10 4 -10 19 0 14 -4 26 -10 26 -6 0 -10 -28 -10 -65z"/>
<path d="M1450 3740 c0 -5 5 -10 10 -10 6 0 10 5 10 10 0 6 -4 10 -10 10 -5 0
-10 -4 -10 -10z"/>
<path d="M2178 3731 c-15 -21 -12 -111 3 -111 5 0 9 18 9 40 0 25 5 40 13 40
8 0 7 4 -3 10 -13 9 -12 12 4 25 17 13 17 15 3 15 -9 0 -22 -8 -29 -19z"/>
<path d="M2380 3685 l0 -65 30 0 c38 0 70 31 70 68 0 37 -28 62 -68 62 l-32 0
0 -65z m78 9 c3 -35 -6 -49 -35 -58 -22 -7 -23 -5 -23 42 0 57 4 63 33 53 15
-5 23 -18 25 -37z"/>
<path d="M2754 3733 c3 -10 10 -39 17 -65 6 -27 15 -48 20 -48 4 0 14 21 22
48 l14 47 9 -44 c13 -60 29 -62 43 -4 7 26 14 56 17 66 3 9 1 17 -4 17 -5 0
-15 -21 -22 -47 l-13 -48 -10 48 c-11 58 -27 57 -43 -4 l-11 -44 -13 48 c-7
26 -17 47 -22 47 -5 0 -7 -8 -4 -17z"/>
<path d="M3140 3685 c0 -37 4 -65 10 -65 6 0 10 16 10 35 0 28 4 35 20 35 16
0 20 -7 20 -35 0 -19 5 -35 10 -35 16 0 12 66 -5 80 -8 7 -22 10 -30 6 -11 -4
-15 1 -15 19 0 14 -4 25 -10 25 -6 0 -10 -28 -10 -65z"/>
<path d="M1488 3719 c-2 -7 -1 -30 2 -53 3 -28 10 -42 23 -44 9 -2 17 1 17 7
0 6 -4 11 -10 11 -5 0 -10 14 -10 30 0 17 5 30 11 30 6 0 4 7 -5 15 -18 18
-23 19 -28 4z"/>
<path d="M1718 3719 c-2 -7 -1 -30 2 -53 3 -28 10 -42 23 -44 9 -2 17 1 17 7
0 6 -4 11 -10 11 -5 0 -10 14 -10 30 0 17 5 30 11 30 6 0 4 7 -5 15 -18 18
-23 19 -28 4z"/>
<path d="M2588 3719 c-2 -7 -1 -30 2 -53 3 -28 10 -42 23 -44 9 -2 17 1 17 7
0 6 -4 11 -10 11 -5 0 -10 14 -10 30 0 17 5 30 11 30 6 0 4 7 -5 15 -18 18
-23 19 -28 4z"/>
<path d="M1210 3664 c0 -24 5 -44 10 -44 6 0 10 14 10 31 0 18 7 37 17 44 15
11 14 13 -10 13 -25 0 -27 -3 -27 -44z"/>
<path d="M1276 3694 c-19 -18 -21 -45 -4 -62 15 -15 58 -16 58 -2 0 6 -6 10
-12 9 -28 -3 -38 2 -38 19 0 24 19 42 36 35 8 -3 14 0 14 6 0 16 -36 13 -54
-5z"/>
<path d="M1450 3665 c0 -25 5 -45 10 -45 6 0 10 20 10 45 0 25 -4 45 -10 45
-5 0 -10 -20 -10 -45z"/>
<path d="M1552 3698 c-29 -29 -7 -78 35 -78 13 0 23 5 23 11 0 5 -4 8 -9 5
-12 -8 -41 3 -41 15 0 5 14 9 30 9 18 0 30 5 30 13 0 18 -21 37 -40 37 -9 0
-21 -5 -28 -12z m46 -16 c2 -7 -6 -12 -17 -12 -21 0 -27 11 -14 24 9 9 26 2
31 -12z"/>
<path d="M1646 3694 c-19 -18 -21 -45 -4 -62 15 -15 58 -16 58 -2 0 6 -6 10
-12 9 -28 -3 -38 2 -38 19 0 24 19 42 36 35 8 -3 14 0 14 6 0 16 -36 13 -54
-5z"/>
<path d="M1780 3676 c0 -39 14 -54 53 -54 25 0 27 3 27 44 0 24 -4 44 -10 44
-5 0 -10 -16 -10 -35 0 -28 -4 -35 -20 -35 -16 0 -20 7 -20 35 0 19 -4 35 -10
35 -5 0 -10 -15 -10 -34z"/>
<path d="M1880 3664 c0 -24 5 -44 10 -44 6 0 10 14 10 31 0 18 7 37 17 44 15
11 14 13 -10 13 -25 0 -27 -3 -27 -44z"/>
<path d="M1942 3698 c-29 -29 -7 -78 35 -78 13 0 23 5 23 11 0 5 -4 8 -9 5
-12 -8 -41 3 -41 15 0 5 14 9 30 9 18 0 30 5 30 13 0 18 -21 37 -40 37 -9 0
-21 -5 -28 -12z m46 -16 c2 -7 -6 -12 -17 -12 -21 0 -27 11 -14 24 9 9 26 2
31 -12z"/>
<path d="M2072 3698 c-17 -17 -15 -53 3 -68 20 -17 62 -5 70 20 14 44 -41 80
-73 48z m58 -32 c0 -18 -21 -35 -36 -29 -17 6 -18 50 -1 56 15 5 37 -11 37
-27z"/>
<path d="M2260 3700 c0 -5 9 -10 20 -10 27 0 25 -18 -2 -22 -15 -2 -23 -10
-23 -23 0 -16 7 -20 33 -22 30 -1 32 1 32 31 0 18 -5 37 -12 44 -15 15 -48 16
-48 2z m40 -50 c0 -5 -7 -10 -15 -10 -8 0 -15 5 -15 10 0 6 7 10 15 10 8 0 15
-4 15 -10z"/>
<path d="M2505 3699 c-4 -6 0 -9 10 -7 27 5 28 -16 3 -27 -34 -15 -29 -39 10
-43 30 -3 32 -2 32 30 0 47 -36 78 -55 47z m35 -47 c0 -13 -12 -22 -22 -16
-10 6 -1 24 13 24 5 0 9 -4 9 -8z"/>
<path d="M2650 3700 c0 -5 9 -10 20 -10 27 0 25 -18 -2 -22 -15 -2 -23 -10
-23 -23 0 -16 7 -20 33 -22 30 -1 32 1 32 31 0 18 -5 37 -12 44 -15 15 -48 16
-48 2z m40 -50 c0 -5 -7 -10 -15 -10 -8 0 -15 5 -15 10 0 6 7 10 15 10 8 0 15
-4 15 -10z"/>
<path d="M2915 3699 c-4 -6 0 -9 10 -7 27 5 28 -16 3 -27 -34 -15 -29 -39 10
-43 30 -3 32 -2 32 30 0 47 -36 78 -55 47z m35 -47 c0 -13 -12 -22 -22 -16
-10 6 -1 24 13 24 5 0 9 -4 9 -8z"/>
<path d="M3000 3664 c0 -24 5 -44 10 -44 6 0 10 14 10 31 0 18 7 37 17 44 15
11 14 13 -10 13 -25 0 -27 -3 -27 -44z"/>
<path d="M3062 3698 c-29 -29 -7 -78 35 -78 13 0 23 5 23 10 0 6 -6 10 -12 9
-24 -3 -38 1 -38 11 0 6 14 10 30 10 33 0 35 3 20 31 -12 21 -40 25 -58 7z
m46 -16 c2 -7 -6 -12 -17 -12 -21 0 -27 11 -14 24 9 9 26 2 31 -12z"/>
<path d="M3252 3698 c-17 -17 -15 -53 3 -68 20 -17 62 -5 70 20 14 44 -41 80
-73 48z m58 -32 c0 -18 -21 -35 -36 -29 -17 6 -18 50 -1 56 15 5 37 -11 37
-27z"/>
<path d="M3340 3676 c0 -39 14 -54 53 -54 25 0 27 3 27 44 0 24 -4 44 -10 44
-5 0 -10 -16 -10 -35 0 -28 -4 -35 -20 -35 -16 0 -20 7 -20 35 0 19 -4 35 -10
35 -5 0 -10 -15 -10 -34z"/>
<path d="M3443 3694 c-4 -11 2 -23 16 -33 23 -17 19 -34 -5 -24 -8 3 -14 0
-14 -6 0 -17 36 -13 51 5 11 14 9 19 -11 35 -22 16 -21 24 3 20 4 0 7 4 7 9 0
17 -40 11 -47 -6z"/>
<path d="M3522 3698 c-29 -29 -7 -78 35 -78 13 0 23 5 23 10 0 6 -6 10 -12 9
-24 -3 -38 1 -38 11 0 6 14 10 30 10 33 0 35 3 20 31 -12 21 -40 25 -58 7z
m46 -16 c2 -7 -6 -12 -17 -12 -21 0 -27 11 -14 24 9 9 26 2 31 -12z"/>
<path d="M4091 3359 c-1 -43 21 -69 47 -52 11 6 18 25 18 49 l2 39 -7 -40 c-5
-31 -10 -40 -26 -40 -16 0 -21 9 -26 40 l-6 40 -2 -36z"/>
<path d="M4185 3360 c-4 -6 -1 -18 6 -26 10 -13 10 -17 -2 -25 -10 -6 -11 -9
-1 -9 19 0 27 31 11 41 -12 8 -12 11 1 19 9 6 10 10 3 10 -6 0 -15 -5 -18 -10z"/>
<path d="M4234 3356 c-11 -28 0 -51 26 -53 l25 -3 -25 12 -25 11 23 5 c15 2
22 9 20 20 -4 22 -36 28 -44 8z m36 -6 c0 -5 -7 -10 -16 -10 -8 0 -12 5 -9 10
3 6 10 10 16 10 5 0 9 -4 9 -10z"/>
<path d="M4301 3331 c1 -28 3 -30 6 -11 3 14 9 30 14 36 5 7 3 11 -6 11 -11 0
-15 -11 -14 -36z"/>
<path d="M4344 3358 c-4 -6 0 -16 9 -23 22 -16 21 -22 0 -28 -16 -4 -16 -5 -1
-6 25 -2 32 18 13 39 -13 14 -13 19 -3 23 9 4 9 6 1 6 -6 1 -15 -4 -19 -11z"/>
<path d="M233 3214 c-4 -11 2 -23 18 -35 l24 -18 -25 -10 c-25 -10 -25 -10 -2
-10 32 -1 41 29 14 47 -27 17 -28 29 -4 35 16 4 16 5 -1 6 -10 0 -20 -6 -24
-15z"/>
<path d="M4035 3177 c-8 -60 4 -101 16 -57 4 14 7 40 8 59 1 25 5 32 16 27 8
-3 54 -10 102 -16 107 -13 191 -29 219 -42 12 -5 40 -11 63 -11 l41 -2 -6 -61
c-5 -51 -4 -62 10 -67 9 -4 16 -17 17 -29 0 -22 1 -22 8 -3 10 25 25 192 16
184 -3 -4 -23 -3 -43 3 -35 8 -165 27 -327 48 -38 5 -84 12 -102 16 l-31 6 -7
-55z"/>
<path d="M300 3195 c-17 -21 -2 -50 26 -50 14 0 19 7 19 30 0 34 -24 45 -45
20z m37 -11 c8 -21 -13 -42 -28 -27 -13 13 -5 43 11 43 6 0 13 -7 17 -16z"/>
<path d="M374 3181 c0 -21 7 -36 16 -38 10 -3 11 -2 3 4 -6 4 -13 22 -16 38
-4 27 -5 27 -3 -4z"/>
<path d="M413 3175 c0 -22 2 -30 4 -17 2 12 2 30 0 40 -3 9 -5 -1 -4 -23z"/>
<path d="M441 3171 c1 -28 3 -30 6 -11 3 14 9 30 14 36 5 7 3 11 -6 11 -11 0
-15 -11 -14 -36z"/>
<path d="M489 3194 c-16 -19 -1 -48 27 -51 15 -2 14 -1 -3 7 -13 5 -23 16 -23
25 0 9 10 20 23 25 15 6 17 9 6 9 -9 1 -22 -6 -30 -15z"/>
<path d="M549 3194 c-16 -19 -1 -48 27 -51 13 -2 11 1 -6 9 l-25 12 28 4 c29
4 33 12 15 30 -16 16 -23 15 -39 -4z m36 -4 c3 -5 -3 -10 -15 -10 -12 0 -18 5
-15 10 3 6 10 10 15 10 5 0 12 -4 15 -10z"/>
<path d="M614 3198 c-4 -6 0 -16 9 -23 22 -16 21 -22 0 -28 -16 -4 -16 -5 -1
-6 25 -2 32 18 13 39 -13 14 -13 19 -3 23 9 4 9 6 1 6 -6 1 -15 -4 -19 -11z"/>
<path d="M4171 3108 c-24 -12 -64 -40 -88 -63 -36 -34 -47 -53 -58 -101 -23
-94 -27 -89 83 -103 185 -24 190 -24 207 -7 9 9 12 16 6 16 -5 0 5 16 23 35
19 19 38 35 45 35 6 0 11 4 11 10 0 5 11 12 25 16 16 4 25 13 25 25 0 10 4 19
10 19 5 0 7 6 4 14 -3 8 -1 17 5 21 6 3 11 23 11 44 0 35 -2 37 -45 49 -75 20
-212 15 -264 -10z m250 -9 c44 -15 44 -14 21 -37 -11 -11 -21 -24 -23 -29 -3
-7 -27 -7 -73 0 -56 8 -80 7 -130 -7 -70 -20 -143 -63 -152 -88 -3 -10 -9 -18
-14 -18 -5 0 -12 -9 -15 -21 -12 -36 -15 -14 -4 25 11 41 16 48 66 103 64 70
224 105 324 72z"/>
<path d="M2332 2990 c0 -39 2 -47 7 -26 9 42 29 44 34 4 l4 -33 1 33 c2 26 -3
35 -17 39 -11 3 -22 12 -24 22 -3 9 -5 -9 -5 -39z"/>
<path d="M2046 3000 c11 -61 21 -69 35 -30 l13 35 8 -34 c11 -39 22 -32 36 22
13 46 5 49 -10 5 l-12 -33 -8 33 c-9 34 -28 35 -28 2 0 -10 -4 -22 -10 -25 -5
-3 -10 2 -10 12 0 10 -5 25 -11 33 -7 11 -8 6 -3 -20z"/>
<path d="M356 2999 c-99 -11 -181 -34 -206 -59 -19 -19 -20 -35 -20 -241 0
-228 3 -248 44 -281 19 -16 51 -18 299 -18 293 0 311 3 334 48 4 9 10 98 13
196 l5 179 470 -497 c259 -273 472 -502 473 -507 2 -5 -4 -9 -14 -9 -9 0 -14
-3 -10 -7 7 -8 79 -33 83 -30 1 2 -3 22 -9 46 -9 37 -13 41 -23 28 -10 -14
-83 60 -493 494 -442 467 -482 512 -482 543 0 48 -41 80 -127 99 -90 20 -239
27 -337 16z m295 -23 c75 -14 131 -36 145 -57 11 -18 -27 -46 -86 -64 -85 -26
-315 -32 -418 -11 -46 9 -94 22 -107 28 -33 15 -42 46 -18 63 16 12 109 38
173 48 59 10 241 5 311 -7z m-430 -132 c20 -7 83 -18 141 -25 152 -18 312 0
421 46 16 7 17 -6 17 -198 l0 -205 -31 -26 -31 -26 -264 0 -264 0 -29 28 c-35
32 -34 19 -32 251 1 170 2 183 19 176 9 -4 33 -14 53 -21z"/>
<path d="M2174 2997 c19 -14 19 -15 -3 -22 -27 -8 -22 -30 8 -31 19 -1 22 3
19 30 -2 22 -9 32 -23 34 -20 4 -20 4 -1 -11z m11 -37 c-3 -5 -11 -10 -16 -10
-6 0 -7 5 -4 10 3 6 11 10 16 10 6 0 7 -4 4 -10z"/>
<path d="M2221 2971 c1 -28 3 -30 6 -11 3 14 9 30 14 36 5 7 3 11 -6 11 -11 0
-15 -11 -14 -36z"/>
<path d="M2264 2996 c-11 -28 0 -51 26 -53 l25 -3 -25 12 -25 11 23 5 c15 2
22 9 20 20 -4 22 -36 28 -44 8z m36 -6 c0 -5 -7 -10 -16 -10 -8 0 -12 5 -9 10
3 6 10 10 16 10 5 0 9 -4 9 -10z"/>
<path d="M2410 2995 c-17 -21 -2 -50 26 -50 14 0 19 7 19 30 0 34 -24 45 -45
20z m37 -11 c8 -21 -13 -42 -28 -27 -13 13 -5 43 11 43 6 0 13 -7 17 -16z"/>
<path d="M2484 2981 c0 -21 7 -36 16 -38 10 -3 11 -2 3 4 -6 4 -13 22 -16 38
-4 27 -5 27 -3 -4z"/>
<path d="M2523 2975 c0 -22 2 -30 4 -17 2 12 2 30 0 40 -3 9 -5 -1 -4 -23z"/>
<path d="M2554 2998 c-4 -6 0 -16 9 -23 22 -16 21 -22 0 -28 -16 -4 -16 -5 -1
-6 25 -2 32 18 13 39 -13 14 -13 19 -3 23 9 4 9 6 1 6 -6 1 -15 -4 -19 -11z"/>
<path d="M2609 2994 c-16 -19 -1 -48 27 -51 13 -2 11 1 -6 9 l-25 12 28 4 c29
4 33 12 15 30 -16 16 -23 15 -39 -4z m36 -4 c3 -5 -3 -10 -15 -10 -12 0 -18 5
-15 10 3 6 10 10 15 10 5 0 12 -4 15 -10z"/>
<path d="M4502 2831 c-7 -21 -12 -52 -12 -69 0 -19 -7 -35 -17 -41 -16 -9 -16
-10 -2 -11 9 0 21 12 27 28 10 26 24 132 18 132 -2 0 -8 -17 -14 -39z"/>
<path d="M3570 2300 c-233 -303 -426 -550 -430 -550 -5 0 -11 8 -16 18 -5 12
-9 3 -14 -33 -4 -27 -6 -51 -5 -53 1 -1 21 6 45 17 36 16 40 20 24 29 -15 8
36 78 398 548 246 320 420 538 428 536 8 -2 32 -7 55 -12 22 -4 67 -14 100
-20 33 -7 69 -21 80 -30 11 -10 37 -23 58 -30 20 -6 37 -15 37 -20 0 -4 23
-22 50 -40 28 -18 48 -35 45 -39 -4 -3 -27 -14 -53 -23 -26 -9 -38 -17 -27
-17 61 -1 132 70 108 108 -6 10 -9 28 -6 40 4 16 1 21 -16 22 -11 1 -24 2 -28
4 -19 5 -351 82 -389 90 -18 4 -87 -81 -444 -545z"/>
<path d="M4188 2588 c5 -5 16 -8 23 -6 8 3 3 7 -10 11 -17 4 -21 3 -13 -5z"/>
<path d="M783 2320 c0 -30 2 -43 4 -27 2 15 2 39 0 55 -2 15 -4 2 -4 -28z"/>
<path d="M4243 2320 c0 -30 2 -43 4 -27 2 15 2 39 0 55 -2 15 -4 2 -4 -28z"/>
<path d="M162 2348 c-16 -16 -15 -53 3 -68 18 -15 52 -4 60 20 13 43 -33 78
-63 48z m52 -20 c13 -22 -14 -54 -38 -45 -16 6 -22 48 -9 61 11 11 35 3 47
-16z"/>
<path d="M498 2350 c-5 -17 3 -80 11 -80 7 0 6 79 -2 86 -3 3 -7 0 -9 -6z"/>
<path d="M4026 2313 c-11 -35 -12 -43 -2 -30 16 21 46 23 46 2 0 -8 4 -15 10
-15 5 0 2 20 -8 45 -9 25 -19 45 -23 45 -4 0 -14 -21 -23 -47z m34 6 c0 -5 -4
-9 -10 -9 -5 0 -10 7 -10 16 0 8 5 12 10 9 6 -3 10 -10 10 -16z"/>
<path d="M241 2286 c1 -28 3 -43 6 -34 2 9 14 18 26 20 17 2 22 10 22 33 0 26
-4 30 -27 31 -27 1 -28 -1 -27 -50z m46 28 c8 -21 -13 -42 -28 -27 -13 13 -5
43 11 43 6 0 13 -7 17 -16z"/>
<path d="M324 2326 c-11 -28 0 -51 26 -53 l25 -3 -25 12 -25 11 23 5 c15 2 22
9 20 20 -4 22 -36 28 -44 8z m36 -6 c0 -5 -7 -10 -16 -10 -8 0 -12 5 -9 10 3
6 10 10 16 10 5 0 9 -4 9 -10z"/>
<path d="M391 2301 c1 -28 3 -30 6 -11 3 14 9 30 14 36 5 7 3 11 -6 11 -11 0
-15 -11 -14 -36z"/>
<path d="M450 2331 c13 -9 12 -12 -4 -24 -20 -15 -14 -37 10 -37 20 0 15 62
-6 67 -13 4 -13 3 0 -6z m10 -41 c0 -5 -4 -10 -10 -10 -5 0 -10 5 -10 10 0 6
5 10 10 10 6 0 10 -4 10 -10z"/>
<path d="M543 2305 c0 -22 2 -30 4 -17 2 12 2 30 0 40 -3 9 -5 -1 -4 -23z"/>
<path d="M577 2334 c-13 -13 -7 -55 9 -61 24 -9 51 23 38 45 -12 19 -36 27
-47 16z m40 -20 c8 -21 -13 -42 -28 -27 -13 13 -5 43 11 43 6 0 13 -7 17 -16z"/>
<path d="M653 2305 c0 -22 2 -30 4 -17 2 12 2 30 0 40 -3 9 -5 -1 -4 -23z"/>
<path d="M677 2329 c6 -8 13 -25 16 -39 4 -17 5 -15 4 9 -1 21 -8 36 -17 39
-12 4 -13 2 -3 -9z"/>
<path d="M733 2334 c23 -7 22 -21 -4 -29 -21 -7 -22 -27 -1 -31 7 -1 8 0 2 3
-11 5 -4 23 10 23 5 0 11 -8 14 -17 2 -10 4 -2 3 17 -2 27 -7 35 -22 37 -16 1
-16 1 -2 -3z"/>
<path d="M4103 2305 c0 -22 2 -30 4 -17 2 12 2 30 0 40 -3 9 -5 -1 -4 -23z"/>
<path d="M4127 2333 c6 -4 13 -22 16 -38 4 -27 5 -27 3 4 0 21 -7 36 -16 38
-10 3 -11 2 -3 -4z"/>
<path d="M4194 2327 c18 -13 18 -14 -4 -20 -28 -7 -21 -32 9 -33 19 -1 22 3
19 30 -2 22 -9 32 -23 34 -19 4 -20 3 -1 -11z m11 -37 c-3 -5 -10 -10 -16 -10
-5 0 -9 5 -9 10 0 6 7 10 16 10 8 0 12 -4 9 -10z"/>
<path d="M4260 2336 c0 -3 5 -16 11 -30 9 -20 9 -29 -1 -41 -8 -10 -9 -15 -2
-15 12 0 26 22 42 67 l10 28 -20 -25 c-15 -20 -20 -21 -20 -8 0 9 -4 20 -10
23 -5 3 -10 4 -10 1z"/>
<path d="M4334 2328 c-4 -6 0 -16 9 -23 22 -16 21 -22 0 -28 -16 -4 -16 -5 -1
-6 26 -2 33 20 12 36 -16 12 -17 15 -4 23 9 6 10 10 3 10 -6 0 -15 -5 -19 -12z"/>
<path d="M4393 2305 c0 -22 2 -30 4 -17 2 12 2 30 0 40 -3 9 -5 -1 -4 -23z"/>
<path d="M4414 2328 c-4 -6 0 -16 9 -23 22 -16 21 -22 0 -28 -16 -4 -16 -5 -1
-6 25 -2 32 18 13 39 -15 17 -15 19 2 23 15 4 16 5 1 6 -9 0 -20 -4 -24 -11z"/>
<path d="M267 2203 c-13 -13 -7 -32 13 -38 27 -9 25 -33 -2 -38 l-23 -4 23 -2
c33 -2 40 28 11 50 l-24 18 25 10 c22 9 23 10 4 10 -11 1 -24 -2 -27 -6z"/>
<path d="M448 2200 c-5 -17 3 -80 11 -80 7 0 6 79 -2 86 -3 3 -7 0 -9 -6z"/>
<path d="M331 2169 c6 -12 9 -32 6 -45 -6 -32 12 -19 29 22 18 43 17 56 -1 24
l-15 -25 -6 23 c-3 12 -10 22 -16 22 -5 0 -4 -10 3 -21z"/>
<path d="M394 2178 c-4 -6 0 -16 9 -23 22 -16 21 -22 0 -28 -16 -4 -16 -5 -1
-6 25 -2 32 18 13 39 -13 14 -13 19 -3 23 9 4 9 6 1 6 -6 1 -15 -4 -19 -11z"/>
<path d="M494 2176 c-11 -28 0 -51 26 -53 l25 -3 -25 12 -25 11 23 5 c15 2 22
9 20 20 -4 22 -36 28 -44 8z m36 -6 c0 -5 -7 -10 -16 -10 -8 0 -12 5 -9 10 3
6 10 10 16 10 5 0 9 -4 9 -10z"/>
<path d="M563 2155 c0 -22 2 -30 4 -17 2 12 2 30 0 40 -3 9 -5 -1 -4 -23z"/>
<path d="M589 2177 c5 -7 11 -23 14 -37 3 -21 5 -19 6 8 1 41 23 39 33 -4 6
-27 6 -27 5 6 -2 32 -5 35 -35 37 -24 1 -30 -2 -23 -10z"/>
<path d="M2325 2168 c-196 -11 -357 -52 -403 -101 -20 -21 -21 -36 -27 -377
l-7 -355 24 -44 c16 -31 38 -52 68 -68 l43 -23 440 0 c426 0 442 1 484 21 23
11 53 35 65 52 23 32 23 36 26 395 l3 363 -34 34 c-78 78 -366 122 -682 103z
m340 -19 c201 -20 337 -68 343 -121 3 -23 -4 -29 -50 -52 -53 -25 -134 -49
-215 -61 l-43 -7 0 75 c0 87 -8 100 -73 118 -57 16 -251 15 -307 0 -67 -19
-70 -24 -70 -112 0 -92 8 -88 -121 -63 -94 18 -203 63 -212 89 -12 28 43 69
125 93 161 47 402 63 623 41z m-22 -72 c20 -9 37 -19 37 -22 0 -15 -78 -36
-157 -41 -94 -7 -219 8 -249 30 -17 13 -16 14 5 26 61 32 292 37 364 7z m-253
-92 c0 -5 -4 -17 -9 -24 -8 -12 -12 -10 -22 12 -15 34 -29 35 -29 3 0 -13 -3
-31 -6 -40 -3 -9 -1 -16 5 -16 6 0 11 12 12 28 l1 27 11 -27 c13 -34 23 -35
33 -6 l7 23 11 -25 c10 -24 10 -23 14 18 l3 42 43 0 c41 0 43 -1 44 -30 1 -31
8 -50 20 -50 9 0 7 53 -2 68 -5 8 3 12 27 12 19 0 55 6 80 14 l47 14 0 -119
c0 -107 -2 -119 -19 -129 -12 -6 -92 -10 -192 -10 -219 0 -209 -7 -209 145 l0
111 65 -15 c36 -8 65 -20 65 -26z m630 -655 c-13 -47 -65 -95 -120 -110 -28
-7 -179 -10 -458 -8 -455 3 -445 2 -502 63 l-25 27 -3 343 -3 344 44 -25 c45
-24 163 -57 248 -69 l45 -6 0 -50 c-1 -42 3 -54 23 -70 21 -17 41 -19 203 -19
177 0 179 0 203 25 19 18 25 35 25 69 0 51 -10 45 110 66 77 14 161 44 192 70
l23 18 3 -315 c1 -193 -2 -330 -8 -353z"/>
<path d="M2444 1965 c-10 -24 4 -45 28 -44 22 1 22 1 -2 9 l-25 8 28 1 c25 1
26 3 17 21 -13 24 -38 26 -46 5z m36 -5 c0 -5 -7 -10 -16 -10 -8 0 -12 5 -9
10 3 6 10 10 16 10 5 0 9 -4 9 -10z"/>
<path d="M2574 1971 c19 -7 19 -8 -3 -14 -30 -8 -22 -31 12 -35 19 -2 27 1 27
12 0 29 -13 46 -34 45 -20 0 -20 -1 -2 -8z m16 -31 c0 -5 -4 -10 -10 -10 -5 0
-10 5 -10 10 0 6 5 10 10 10 6 0 10 -4 10 -10z"/>
<path d="M2360 1820 c0 -35 3 -40 23 -40 27 0 42 10 49 30 9 26 -11 50 -42 50
-28 0 -30 -2 -30 -40z m55 0 c0 -16 -6 -26 -17 -28 -14 -3 -18 3 -18 28 0 25
4 31 18 28 11 -2 17 -12 17 -28z"/>
<path d="M2512 1847 c-5 -7 -6 -23 -2 -37 5 -22 12 -25 54 -28 46 -2 47 -2 44
25 -2 22 -9 28 -28 30 -15 1 -18 0 -7 -3 16 -5 15 -8 -7 -25 -13 -10 -27 -19
-30 -19 -10 0 -7 38 3 42 5 2 3 8 -4 15 -10 10 -15 10 -23 0z m78 -47 c0 -5
-4 -10 -10 -10 -5 0 -10 5 -10 10 0 6 5 10 10 10 6 0 10 -4 10 -10z"/>
<path d="M2463 1833 c18 -4 18 -6 -2 -20 -26 -18 -19 -33 15 -33 22 0 25 4 22
28 -2 21 -9 27 -28 29 -16 1 -19 0 -7 -4z m17 -33 c0 -5 -4 -10 -10 -10 -5 0
-10 5 -10 10 0 6 5 10 10 10 6 0 10 -4 10 -10z"/>
<path d="M2118 1700 c-32 -5 -71 -16 -87 -24 l-29 -15 -4 -143 c-2 -79 0 -155
4 -169 14 -43 45 -49 229 -49 l170 0 24 26 c24 26 25 32 25 174 0 165 -1 169
-75 189 -57 16 -190 21 -257 11z m275 -33 c47 -20 47 -34 0 -53 -108 -46 -426
-14 -376 37 38 39 295 50 376 16z m-313 -79 c73 -21 264 -11 333 17 15 6 17 1
17 -43 0 -32 -5 -54 -15 -62 -10 -9 -15 -9 -15 -1 0 6 -11 11 -25 11 -21 0
-25 -5 -24 -27 l0 -28 10 25 c10 24 11 24 25 6 10 -14 11 -23 3 -33 -8 -9 -8
-13 -1 -13 6 0 18 12 26 28 15 26 15 25 16 -45 0 -105 4 -103 -207 -103 -150
0 -179 2 -195 17 -16 14 -18 33 -18 146 0 119 1 129 18 122 9 -4 33 -12 52
-17z"/>
<path d="M2020 1516 c0 -7 7 -20 16 -27 14 -12 14 -14 -3 -20 -16 -7 -16 -8
-1 -8 25 -1 32 18 13 39 -13 14 -13 19 -3 23 8 4 7 6 -4 6 -10 1 -18 -5 -18
-13z"/>
<path d="M2071 1488 c-1 -22 4 -28 19 -28 15 0 20 6 19 28 -2 23 -2 24 -6 5
-2 -13 -8 -23 -13 -23 -5 0 -11 10 -13 23 -4 19 -4 18 -6 -5z"/>
<path d="M2131 1483 c2 -24 2 -25 6 -5 2 12 8 22 13 22 5 0 11 -10 13 -22 l4
-23 2 23 c0 12 5 22 10 22 5 0 12 -10 14 -22 4 -20 4 -19 6 5 1 25 -2 27 -34
27 -32 0 -35 -2 -34 -27z"/>
<path d="M2211 1483 c2 -24 2 -25 6 -5 2 12 11 22 18 22 7 0 16 -10 18 -22 l4
-23 2 23 c0 12 5 22 10 22 5 0 12 -10 14 -22 4 -20 4 -19 6 5 1 25 -2 27 -39
27 -37 0 -40 -2 -39 -27z"/>
<path d="M2314 1502 c18 -8 18 -9 3 -15 -24 -9 -21 -27 4 -27 28 0 23 44 -6
47 -19 3 -19 3 -1 -5z"/>
<path d="M2130 1386 l0 -35 50 1 c46 0 50 2 50 24 0 17 -6 24 -19 24 -11 0
-23 5 -26 10 -3 6 -17 10 -31 10 -21 0 -24 -5 -24 -34z m45 -1 c0 -11 -8 -21
-17 -23 -14 -3 -18 3 -18 23 0 20 4 26 18 23 9 -2 17 -12 17 -23z m36 -2 c-11
-5 -11 -7 0 -15 12 -8 12 -9 0 -6 -22 6 -25 28 -4 27 12 0 14 -2 4 -6z"/>
<path d="M2248 1405 c-7 -7 3 -55 11 -55 8 0 7 47 -1 55 -2 3 -7 3 -10 0z"/>
<path d="M2294 1392 c18 -8 18 -9 3 -15 -24 -9 -21 -27 4 -27 28 0 23 44 -6
47 -19 3 -19 3 -1 -5z"/>
<path d="M2638 1700 c-32 -5 -71 -16 -88 -25 l-30 -16 0 -159 0 -159 26 -20
c25 -19 40 -21 206 -21 177 0 179 0 203 25 24 23 25 28 25 173 0 167 -1 171
-75 191 -59 15 -201 21 -267 11z m245 -24 c33 -8 64 -19 70 -25 17 -17 -19
-38 -92 -52 -115 -21 -321 4 -321 40 0 43 219 66 343 37z m-133 -97 c104 0
139 4 193 26 16 7 17 -3 17 -123 0 -105 -3 -134 -16 -146 -13 -13 -45 -16
-199 -16 -179 0 -184 1 -199 22 -17 24 -21 101 -10 205 l7 60 46 -14 c29 -9
88 -15 161 -14z"/>
<path d="M2640 1521 c0 -23 5 -41 10 -41 6 0 10 7 10 15 0 20 10 19 25 -2 10
-14 12 -10 11 23 -1 35 -4 39 -28 42 -27 3 -28 1 -28 -37z m40 14 c0 -8 -4
-15 -10 -15 -5 0 -10 7 -10 15 0 8 5 15 10 15 6 0 10 -7 10 -15z"/>
<path d="M2734 1531 c19 -7 19 -8 -3 -14 -30 -8 -22 -31 12 -35 19 -2 27 1 27
12 0 29 -13 46 -34 45 -20 0 -20 -1 -2 -8z m16 -31 c0 -5 -4 -10 -10 -10 -5 0
-10 5 -10 10 0 6 5 10 10 10 6 0 10 -4 10 -10z"/>
<path d="M2781 1510 c11 -31 29 -41 29 -15 0 8 5 15 10 15 6 0 10 -7 10 -15 0
-23 16 -18 28 10 15 32 15 35 2 35 -5 0 -10 -8 -10 -17 -1 -16 -2 -16 -15 1
-15 20 -15 20 -30 0 -13 -17 -14 -17 -15 -1 0 9 -4 17 -9 17 -6 0 -6 -12 0
-30z"/>
<path d="M2640 1380 c0 -35 3 -40 23 -40 27 0 42 10 49 30 9 26 -11 50 -42 50
-28 0 -30 -2 -30 -40z m55 0 c0 -16 -6 -26 -17 -28 -14 -3 -18 3 -18 28 0 25
4 31 18 28 11 -2 17 -12 17 -28z"/>
<path d="M2792 1407 c-5 -7 -6 -23 -2 -37 5 -22 12 -25 54 -28 46 -2 47 -2 44
25 -2 22 -9 28 -28 30 -15 1 -18 0 -7 -3 16 -5 15 -8 -7 -25 -13 -10 -27 -19
-30 -19 -10 0 -7 38 3 42 5 2 3 8 -4 15 -10 10 -15 10 -23 0z m78 -47 c0 -5
-4 -10 -10 -10 -5 0 -10 5 -10 10 0 6 5 10 10 10 6 0 10 -4 10 -10z"/>
<path d="M2743 1393 c18 -4 18 -6 -2 -20 -26 -18 -19 -33 15 -33 22 0 25 4 22
28 -2 21 -9 27 -28 29 -16 1 -19 0 -7 -4z m17 -33 c0 -5 -4 -10 -10 -10 -5 0
-10 5 -10 10 0 6 5 10 10 10 6 0 10 -4 10 -10z"/>
<path d="M4036 2056 c-4 -26 -4 -56 0 -69 l8 -22 7 25 c4 14 7 40 8 58 1 28 4
32 29 32 15 0 43 -4 62 -9 19 -5 76 -15 125 -22 50 -7 107 -18 129 -26 21 -7
51 -13 67 -13 l29 0 -6 -54 c-5 -43 -3 -58 10 -71 9 -9 16 -24 16 -33 1 -15 2
-15 9 -2 13 23 25 194 13 186 -6 -3 -46 0 -89 8 -130 24 -205 35 -273 41 -36
3 -81 8 -101 11 l-37 5 -6 -45z"/>
<path d="M4192 1989 c-77 -27 -162 -104 -162 -147 0 -27 1 -27 22 8 46 72 92
103 184 125 58 13 80 14 139 4 87 -14 91 -17 66 -40 -12 -11 -21 -23 -21 -27
0 -4 -44 -5 -98 -4 -86 3 -105 1 -148 -19 -27 -13 -55 -29 -62 -36 -7 -7 -18
-13 -23 -13 -5 0 -22 -20 -38 -45 -18 -28 -31 -41 -34 -33 -3 7 -6 1 -6 -14
-1 -14 -6 -28 -13 -30 -6 -2 -9 -11 -6 -20 4 -10 25 -18 60 -22 29 -4 76 -13
103 -21 44 -12 -11 -14 -464 -14 -509 -1 -513 -1 -508 19 6 25 8 25 -43 -4
l-41 -23 41 -22 c50 -26 49 -26 43 -1 -5 21 -4 21 520 18 404 -2 529 -6 539
-15 6 -7 22 -13 33 -13 12 0 30 -9 40 -20 10 -11 23 -20 29 -20 6 0 23 -11 38
-25 15 -14 31 -25 37 -25 5 0 11 -6 14 -12 2 -8 10 -1 17 15 10 21 11 33 2 52
-11 23 -10 25 11 20 28 -7 43 25 50 110 l5 60 -13 -40 c-7 -22 -14 -55 -14
-73 -1 -38 -23 -51 -46 -28 -9 9 -25 16 -36 16 -25 0 -109 20 -131 31 -10 5
-28 9 -40 9 -28 0 -164 34 -198 49 -20 9 -12 10 40 5 36 -4 74 -10 85 -14 11
-4 46 -11 78 -14 50 -6 58 -5 64 11 4 10 17 29 30 43 13 14 23 28 23 32 0 5 6
8 14 8 7 0 19 7 26 15 7 8 20 15 29 15 19 0 51 89 51 139 0 26 -4 29 -42 35
-129 18 -183 16 -246 -5z"/>
<path d="M278 1975 c-69 -14 -101 -27 -130 -53 -16 -14 -18 -38 -18 -241 0
-319 -21 -301 347 -301 342 0 343 0 343 191 l0 99 471 0 470 0 -6 -21 -7 -20
41 21 c23 11 41 22 41 25 0 3 -18 14 -41 25 l-41 21 7 -20 c6 -21 4 -21 -238
-21 -134 0 -346 3 -470 7 l-227 6 0 99 c0 111 -7 131 -52 154 -79 41 -349 57
-490 29z m412 -21 c113 -26 139 -59 73 -92 -50 -25 -72 -30 -189 -42 -165 -17
-389 16 -418 62 -46 75 311 124 534 72z m-371 -145 c149 -21 382 -1 459 40
l22 12 0 -206 c0 -205 0 -206 -25 -230 l-24 -25 -271 0 c-175 0 -278 4 -291
11 -38 20 -44 56 -41 257 l3 191 42 -19 c23 -10 80 -24 126 -31z"/>
<path d="M4021 1794 c0 -11 3 -14 6 -6 3 7 2 16 -1 19 -3 4 -6 -2 -5 -13z"/>
<path d="M1787 1560 c-41 -14 -45 -18 -28 -26 17 -8 -41 -73 -458 -513 l-476
-503 -2 108 c-2 60 -5 119 -8 131 -12 53 -141 87 -335 87 -150 1 -246 -14
-306 -48 l-39 -22 -3 -233 -2 -233 34 -34 34 -34 277 0 277 0 34 34 c34 34 34
35 34 126 l0 91 423 447 c232 246 450 476 484 512 50 52 64 62 72 50 6 -8 11
-12 13 -10 3 4 27 92 24 89 -1 -1 -22 -9 -49 -19z m-1123 -745 c85 -16 138
-42 134 -65 -2 -8 -23 -25 -48 -37 -152 -74 -600 -42 -600 43 0 58 326 96 514
59z m111 -535 l-25 -25 -275 0 -275 0 -26 26 -25 26 1 198 c0 110 2 200 3 201
1 1 28 -6 60 -17 85 -29 244 -41 363 -29 109 11 199 34 211 53 4 6 9 -82 11
-198 l2 -209 -25 -26z"/>
<path d="M3105 1547 c13 -67 15 -70 29 -52 10 14 14 13 32 -12 119 -161 646
-792 751 -899 60 -61 75 -72 114 -77 42 -6 77 -14 162 -35 21 -6 44 -17 50
-25 7 -8 29 -20 50 -27 20 -6 37 -16 37 -21 0 -5 5 -9 10 -9 6 0 23 -11 38
-25 15 -14 32 -25 39 -25 6 0 13 -6 16 -12 2 -8 10 -1 18 15 10 22 10 33 2 47
-7 10 -9 27 -6 38 5 22 -3 26 -77 37 -25 4 -76 15 -115 25 -140 35 -216 51
-245 52 -37 1 -110 74 -295 293 -187 221 -544 662 -551 680 -4 10 0 15 12 15
23 0 13 9 -37 31 l-41 19 7 -33z"/>
<path d="M4160 1476 c0 -2 7 -7 16 -10 8 -3 12 -2 9 4 -6 10 -25 14 -25 6z"/>
<path d="M4370 1470 c-13 -8 -13 -10 2 -10 9 0 20 5 23 10 8 13 -5 13 -25 0z"/>
<path d="M4248 1453 c17 -2 47 -2 65 0 17 2 3 4 -33 4 -36 0 -50 -2 -32 -4z"/>
<path d="M783 1230 c0 -30 2 -43 4 -27 2 15 2 39 0 55 -2 15 -4 2 -4 -28z"/>
<path d="M4021 1233 c1 -26 4 -38 6 -25 2 12 9 22 14 22 5 0 14 -10 19 -22 7
-18 8 -14 7 22 -2 38 -5 45 -24 48 -21 3 -23 0 -22 -45z m39 22 c0 -8 -7 -15
-15 -15 -8 0 -15 7 -15 15 0 8 7 15 15 15 8 0 15 -7 15 -15z"/>
<path d="M4358 1270 c-5 -17 3 -80 11 -80 7 0 6 79 -2 86 -3 3 -7 0 -9 -6z"/>
<path d="M162 1258 c-16 -16 -15 -53 3 -68 18 -15 52 -4 60 20 13 43 -33 78
-63 48z m52 -20 c13 -22 -14 -54 -38 -45 -16 6 -22 48 -9 61 11 11 35 3 47
-16z"/>
<path d="M498 1260 c-5 -17 3 -80 11 -80 7 0 6 79 -2 86 -3 3 -7 0 -9 -6z"/>
<path d="M4089 1244 c-16 -19 -1 -48 27 -51 13 -2 11 1 -6 9 l-25 12 28 4 c29
4 33 12 15 30 -16 16 -23 15 -39 -4z m36 -4 c3 -5 -3 -10 -15 -10 -12 0 -18 5
-15 10 3 6 10 10 15 10 5 0 12 -4 15 -10z"/>
<path d="M4161 1206 c1 -28 4 -41 6 -29 2 13 10 20 17 17 7 -3 19 2 26 11 18
21 2 50 -29 51 -19 1 -21 -4 -20 -50z m46 28 c8 -21 -13 -42 -28 -27 -13 13
-5 43 11 43 6 0 13 -7 17 -16z"/>
<path d="M4242 1251 c-8 -4 -12 -19 -10 -32 2 -18 9 -24 28 -24 21 0 25 5 25
30 0 31 -19 42 -43 26z m35 -17 c8 -21 -13 -42 -28 -27 -13 13 -5 43 11 43 6
0 13 -7 17 -16z"/>
<path d="M4311 1221 c1 -28 3 -30 6 -11 3 14 9 30 14 36 5 7 3 11 -6 11 -11 0
-15 -11 -14 -36z"/>
<path d="M4403 1225 c0 -22 2 -30 4 -17 2 12 2 30 0 40 -3 9 -5 -1 -4 -23z"/>
<path d="M4431 1221 c1 -35 2 -35 8 -7 9 42 29 44 34 4 l5 -33 -2 35 c-1 29
-5 35 -23 36 -20 1 -23 -3 -22 -35z"/>
<path d="M4504 1246 c-10 -27 1 -50 26 -57 l25 -6 -25 -11 c-14 -6 -18 -11 -9
-11 24 -1 39 20 39 59 0 31 -3 36 -25 38 -15 1 -28 -4 -31 -12z m43 -12 c8
-21 -13 -42 -28 -27 -13 13 -5 43 11 43 6 0 13 -7 17 -16z"/>
<path d="M241 1196 c1 -28 3 -43 6 -34 2 9 14 18 26 20 17 2 22 10 22 33 0 26
-4 30 -27 31 -27 1 -28 -1 -27 -50z m46 28 c8 -21 -13 -42 -28 -27 -13 13 -5
43 11 43 6 0 13 -7 17 -16z"/>
<path d="M324 1236 c-11 -28 0 -51 26 -53 l25 -3 -25 12 -25 11 23 5 c15 2 22
9 20 20 -4 22 -36 28 -44 8z m36 -6 c0 -5 -7 -10 -16 -10 -8 0 -12 5 -9 10 3
6 10 10 16 10 5 0 9 -4 9 -10z"/>
<path d="M391 1211 c1 -28 3 -30 6 -11 3 14 9 30 14 36 5 7 3 11 -6 11 -11 0
-15 -11 -14 -36z"/>
<path d="M450 1241 c13 -9 12 -12 -4 -24 -20 -15 -14 -37 10 -37 20 0 15 62
-6 67 -13 4 -13 3 0 -6z m10 -41 c0 -5 -4 -10 -10 -10 -5 0 -10 5 -10 10 0 6
5 10 10 10 6 0 10 -4 10 -10z"/>
<path d="M543 1215 c0 -22 2 -30 4 -17 2 12 2 30 0 40 -3 9 -5 -1 -4 -23z"/>
<path d="M577 1244 c-13 -13 -7 -55 9 -61 24 -9 51 23 38 45 -12 19 -36 27
-47 16z m40 -20 c8 -21 -13 -42 -28 -27 -13 13 -5 43 11 43 6 0 13 -7 17 -16z"/>
<path d="M653 1215 c0 -22 2 -30 4 -17 2 12 2 30 0 40 -3 9 -5 -1 -4 -23z"/>
<path d="M677 1239 c6 -8 13 -25 16 -39 4 -17 5 -15 4 9 -1 21 -8 36 -17 39
-12 4 -13 2 -3 -9z"/>
<path d="M733 1244 c23 -7 22 -21 -4 -29 -21 -7 -22 -27 -1 -31 7 -1 8 0 2 3
-11 5 -4 23 10 23 5 0 11 -8 14 -17 2 -10 4 -2 3 17 -2 27 -7 35 -22 37 -16 1
-16 1 -2 -3z"/>
<path d="M267 1103 c-13 -13 -7 -32 13 -38 27 -9 25 -33 -2 -38 l-23 -4 23 -2
c33 -2 40 28 11 50 l-24 18 25 10 c22 9 23 10 4 10 -11 1 -24 -2 -27 -6z"/>
<path d="M448 1100 c-5 -17 3 -80 11 -80 7 0 6 79 -2 86 -3 3 -7 0 -9 -6z"/>
<path d="M331 1069 c6 -12 9 -32 6 -45 -6 -32 12 -19 29 22 18 43 17 56 -1 24
l-15 -25 -6 23 c-3 12 -10 22 -16 22 -5 0 -4 -10 3 -21z"/>
<path d="M394 1078 c-4 -6 0 -16 9 -23 22 -16 21 -22 0 -28 -16 -4 -16 -5 -1
-6 25 -2 32 18 13 39 -13 14 -13 19 -3 23 9 4 9 6 1 6 -6 1 -15 -4 -19 -11z"/>
<path d="M494 1076 c-11 -28 0 -51 26 -53 l25 -3 -25 12 -25 11 23 5 c15 2 22
9 20 20 -4 22 -36 28 -44 8z m36 -6 c0 -5 -7 -10 -16 -10 -8 0 -12 5 -9 10 3
6 10 10 16 10 5 0 9 -4 9 -10z"/>
<path d="M563 1055 c0 -22 2 -30 4 -17 2 12 2 30 0 40 -3 9 -5 -1 -4 -23z"/>
<path d="M589 1077 c5 -7 11 -23 14 -37 3 -21 5 -19 6 8 1 41 23 39 33 -4 6
-27 6 -27 5 6 -2 32 -5 35 -35 37 -24 1 -30 -2 -23 -10z"/>
<path d="M4036 885 c-4 -25 -4 -55 0 -68 l8 -22 7 25 c4 14 7 39 8 57 1 31 2
31 44 26 23 -2 62 -8 87 -13 25 -5 72 -12 105 -15 33 -4 86 -15 118 -27 32
-11 65 -17 72 -14 12 4 14 -5 8 -56 -5 -50 -3 -62 10 -70 10 -5 17 -19 18 -31
0 -21 1 -21 8 -2 9 22 24 207 15 188 -4 -9 -11 -10 -22 -4 -9 5 -44 12 -77 16
-33 3 -82 10 -110 15 -49 9 -152 24 -246 35 l-47 6 -6 -46z"/>
<path d="M4175 813 c-37 -16 -75 -43 -99 -71 -6 -7 -18 -21 -27 -30 -9 -9 -19
-37 -22 -62 -6 -44 -6 -44 6 -13 32 85 111 147 221 173 37 8 67 8 123 -1 40
-6 75 -15 77 -18 2 -3 -6 -18 -18 -32 -22 -26 -27 -27 -127 -26 -79 0 -111 -4
-134 -16 -16 -9 -36 -17 -42 -17 -7 0 -13 -4 -13 -8 0 -5 -11 -14 -24 -21 -13
-7 -34 -30 -47 -51 -15 -24 -27 -34 -31 -26 -5 6 -8 0 -8 -14 0 -22 5 -25 38
-27 20 -1 62 -6 92 -12 111 -23 158 -25 175 -7 11 11 12 16 4 16 -19 0 80 89
107 96 13 3 24 14 24 23 0 9 7 29 15 45 8 15 15 45 15 66 l0 37 -52 7 c-95 11
-211 6 -253 -11z"/>
<path d="M4502 535 c-7 -25 -12 -56 -12 -69 0 -14 -7 -32 -16 -40 -12 -12 -12
-16 -2 -16 18 0 35 44 42 113 3 31 5 57 3 57 -1 0 -8 -20 -15 -45z"/>
<path d="M4385 303 l-30 -14 30 6 c31 7 41 12 34 19 -2 2 -17 -3 -34 -11z"/>
<path d="M4248 283 c17 -2 47 -2 65 0 17 2 3 4 -33 4 -36 0 -50 -2 -32 -4z"/>
<path d="M4095 179 c-4 -22 -4 -43 -1 -46 3 -4 6 6 6 20 0 35 13 34 27 0 l10
-28 14 35 14 35 6 -35 c6 -33 6 -33 8 13 1 55 -12 61 -29 15 l-12 -33 -14 33
c-8 17 -16 32 -18 32 -2 0 -7 -18 -11 -41z"/>
<path d="M4203 165 c0 -22 2 -30 4 -17 2 12 2 30 0 40 -3 9 -5 -1 -4 -23z"/>
<path d="M4231 161 c1 -36 1 -36 8 -6 3 17 13 30 21 30 8 0 18 -13 22 -30 6
-29 6 -29 5 5 -2 31 -5 35 -29 36 -26 1 -28 -2 -27 -35z"/>
<path d="M4313 165 c0 -22 2 -30 4 -17 2 12 2 30 0 40 -3 9 -5 -1 -4 -23z"/>
<path d="M4341 161 c1 -35 2 -35 8 -7 9 42 29 44 34 4 l5 -33 -2 35 c-1 29 -5
35 -23 36 -20 1 -23 -3 -22 -35z"/>
<path d="M4420 185 c-16 -20 -3 -53 23 -58 22 -3 22 -4 -3 -15 -14 -6 -18 -11
-9 -11 24 -1 39 20 39 59 0 28 -4 36 -19 37 -11 1 -25 -5 -31 -12z m37 -11 c8
-21 -13 -42 -28 -27 -13 13 -5 43 11 43 6 0 13 -7 17 -16z"/>
<path d="M373 140 c0 -30 2 -43 4 -28 2 16 2 40 0 56 -2 15 -4 2 -4 -28z"/>
<path d="M542 173 c-4 -10 -5 -34 -1 -53 l6 -35 2 33 c0 17 5 32 10 32 6 0 12
-15 14 -32 4 -32 4 -32 5 5 2 27 -2 37 -13 37 -21 0 -19 18 3 23 16 4 16 5 0
6 -10 0 -21 -7 -26 -16z"/>
<path d="M613 140 c0 -30 2 -43 4 -28 2 16 2 40 0 56 -2 15 -4 2 -4 -28z"/>
<path d="M301 133 c1 -27 4 -38 6 -26 2 13 13 24 26 26 l22 4 -22 2 c-13 0
-23 7 -23 15 0 8 10 17 23 19 19 4 18 4 -5 6 -27 1 -28 -1 -27 -46z"/>
<path d="M468 170 c-5 -17 3 -80 11 -80 7 0 6 79 -2 86 -3 3 -7 0 -9 -6z"/>
<path d="M413 154 c23 -7 22 -21 -4 -29 -21 -7 -22 -27 -1 -31 7 -1 8 0 2 3
-11 5 -4 23 10 23 5 0 11 -8 14 -17 2 -10 4 -2 3 17 -2 27 -7 35 -22 37 -16 1
-16 1 -2 -3z"/>
<path d="M639 144 c-16 -19 -1 -48 27 -51 13 -2 11 1 -6 9 l-25 12 28 4 c29 4
33 12 15 30 -16 16 -23 15 -39 -4z m36 -4 c3 -5 -3 -10 -15 -10 -12 0 -18 5
-15 10 3 6 10 10 15 10 5 0 12 -4 15 -10z"/>
<path d="M704 148 c-4 -6 0 -16 9 -23 22 -16 21 -22 0 -28 -16 -4 -16 -5 -1
-6 25 -2 32 18 13 39 -15 17 -15 19 2 23 15 4 16 5 1 6 -9 0 -20 -4 -24 -11z"/>
</g>
</svg>
